<?xml version="1.0" encoding="UTF-8" standalone="no"?>
<!-- Created with Inkscape (http://www.inkscape.org/) -->

<svg
   width="79.476089mm"
   height="88.389748mm"
   viewBox="0 0 79.476089 88.389748"
   version="1.1"
   id="svg2971"
   inkscape:version="1.1.1 (1:1.1+202109281949+c3084ef5ed)"
   sodipodi:docname="logo-words.svg"
   xmlns:inkscape="http://www.inkscape.org/namespaces/inkscape"
   xmlns:sodipodi="http://sodipodi.sourceforge.net/DTD/sodipodi-0.dtd"
   xmlns="http://www.w3.org/2000/svg"
   xmlns:svg="http://www.w3.org/2000/svg">
  <sodipodi:namedview
     id="namedview2973"
     pagecolor="#ffffff"
     bordercolor="#666666"
     borderopacity="1.0"
     inkscape:pageshadow="2"
     inkscape:pageopacity="0.0"
     inkscape:pagecheckerboard="0"
     inkscape:document-units="mm"
     showgrid="false"
     inkscape:zoom="0.66368547"
     inkscape:cx="174.02822"
     inkscape:cy="132.59293"
     inkscape:window-width="1920"
     inkscape:window-height="1043"
     inkscape:window-x="1920"
     inkscape:window-y="0"
     inkscape:window-maximized="1"
     inkscape:current-layer="layer1" />
  <defs
     id="defs2968" />
  <g
     inkscape:label="Layer 1"
     inkscape:groupmode="layer"
     id="layer1"
     transform="translate(-59.12907,-113.27493)">
    <g
       id="g83679"
       transform="translate(305.52881,-79.177514)">
      <g
         aria-label="SDN"
         id="text45705"
         style="font-size:26.9305px;line-height:0;font-family:'Happy markers';-inkscape-font-specification:'Happy markers';letter-spacing:0px;word-spacing:0px;fill:#ffffff;stroke-width:0.673265">
        <path
           d="m -215.11035,265.36504 -3.47151,4.28679 -4.07639,-2.61679 -1.02567,1.30182 7.27176,5.32561 -3.52411,6.65373 h -8.63933 l -6.03569,-4.79963 2.61678,-4.37883 5.19412,2.93237 0.77583,-1.20977 -7.61365,-4.52348 7.21916,-8.08704 h 6.48278 l 4.82592,5.11522 z"
           style="font-family:'Super Mario 286';-inkscape-font-specification:'Super Mario 286, '"
           id="path825" />
        <path
           d="m -205.10346,260.30242 5.65436,4.64183 1.15717,10.79587 -5.57546,4.54978 h -11.15091 v -18.77771 l 9.91484,-1.20977 z m -3.74765,7.19286 v 5.8779 l 3.62931,-1.27552 v -2.93237 l -3.62931,-1.67001 z"
           style="font-family:'Super Mario 286';-inkscape-font-specification:'Super Mario 286, '"
           id="path827" />
        <path
           d="m -195.64885,261.1966 4.02379,-0.55229 6.31184,8.58673 0.81528,-8.40263 5.78585,0.49968 -0.81528,18.89606 -4.51034,0.39449 -5.83844,-7.41641 -0.263,7.63996 -6.36443,-0.84158 z"
           style="font-family:'Super Mario 286';-inkscape-font-specification:'Super Mario 286, '"
           id="path829" />
      </g>
      <path
         id="path54120"
         style="vector-effect:none;fill:#ffffff;fill-opacity:1;stroke:none;stroke-width:0.24183px;stroke-linecap:butt;stroke-linejoin:miter;stroke-miterlimit:4;stroke-dasharray:none;stroke-dashoffset:0;stroke-opacity:1"
         d="m -201.81093,192.45244 -20.64387,3.7323 -16.8445,18.14481 -5.54791,14.59008 2.13773,11.2555 -3.69026,7.85427 5.69197,0.3788 2.14058,-2.82496 3.20046,3.86219 7.39896,0.30229 4.60233,-5.32594 5.14408,8.15279 24.71246,1.96157 -0.0713,-7.7003 -7.76785,-0.30796 -2.24164,-3.63548 16.33673,-6.73533 2.50521,3.0824 7.62001,2.19629 10.20409,0.28906 -2.1878,-4.53148 -6.10858,-0.95266 -2.89534,-5.16203 1.56245,-1.22193 2.85614,-13.16981 2.65399,-4.25185 -0.67306,-1.66304 -8.91889,4.90554 -9.68785,1.12318 -7.30874,4.62643 -16.17709,-0.23994 -4.47243,-3.88109 1.46419,-2.76499 3.84898,2.31062 14.48901,0.39958 6.77312,-3.7512 9.68265,-2.02815 9.76529,-4.23723 -2.78718,-9.83188 -7.09667,0.43972 z m 0.15161,15.27968 6.29025,0.65589 0.0485,1.67895 -0.68901,1.72601 -5.10089,0.6282 -0.77745,-2.48253 z"
         sodipodi:nodetypes="cccccccccccccccccccccccccccccccccccccccccccccccc" />
    </g>
  </g>
</svg>
