<?xml version="1.0" encoding="UTF-8" standalone="no"?>
<!-- Created with Inkscape (http://www.inkscape.org/) -->

<svg
   width="262.57407mm"
   height="135.69518mm"
   viewBox="0 0 262.57407 135.69518"
   version="1.1"
   id="svg8680"
   inkscape:version="1.1.1 (1:1.1+202109281949+c3084ef5ed)"
   sodipodi:docname="players.svg"
   xmlns:inkscape="http://www.inkscape.org/namespaces/inkscape"
   xmlns:sodipodi="http://sodipodi.sourceforge.net/DTD/sodipodi-0.dtd"
   xmlns="http://www.w3.org/2000/svg"
   xmlns:svg="http://www.w3.org/2000/svg">
  <sodipodi:namedview
     id="namedview8682"
     pagecolor="#ffffff"
     bordercolor="#666666"
     borderopacity="1.0"
     inkscape:pageshadow="2"
     inkscape:pageopacity="0.0"
     inkscape:pagecheckerboard="0"
     inkscape:document-units="mm"
     showgrid="false"
     inkscape:zoom="0.68684764"
     inkscape:cx="447.69754"
     inkscape:cy="416.39511"
     inkscape:window-width="1920"
     inkscape:window-height="1043"
     inkscape:window-x="1920"
     inkscape:window-y="0"
     inkscape:window-maximized="1"
     inkscape:current-layer="layer1" />
  <defs
     id="defs8677" />
  <g
     inkscape:label="Layer 1"
     inkscape:groupmode="layer"
     id="layer1"
     transform="translate(13.411548,-38.086263)">
    <g
       id="g8318"
       inkscape:export-filename="/home/frank/WebstormProjects/joinSDN/public/images/players.png"
       inkscape:export-xdpi="100"
       inkscape:export-ydpi="100"
       transform="translate(-245.28226,151.97833)">
      <g
         id="g8176">
        <g
           id="g2817">
          <path
             id="rect2552"
             style="fill:#ff4655;stroke-linecap:round"
             d="m 233.82732,-113.89207 h 34.89533 c 1.08396,0 1.9566,0.87265 1.9566,1.95661 v 34.895327 c 0,1.08396 -0.87264,1.956606 -1.9566,1.956606 h -34.89533 c -1.08396,0 -1.95661,-0.872646 -1.95661,-1.956606 v -34.895327 c 0,-1.08396 0.87265,-1.95661 1.95661,-1.95661 z" />
          <g
             id="g77689"
             style="fill:#ffffff"
             transform="matrix(0.78583731,0,0,0.78583731,869.98019,-808.56032)">
            <path
               style="opacity:1;vector-effect:none;fill:#ffffff;fill-opacity:1;stroke:none;stroke-width:0.264583px;stroke-linecap:butt;stroke-linejoin:miter;stroke-miterlimit:4;stroke-dasharray:none;stroke-dashoffset:0;stroke-opacity:1"
               d="m -803.14098,895.72631 v 13.01332 l 10.67653,12.97723 h 10.20546 z"
               id="path77073"
               sodipodi:nodetypes="ccccc" />
            <path
               style="opacity:1;vector-effect:none;fill:#ffffff;fill-opacity:1;stroke:none;stroke-width:0.264583px;stroke-linecap:butt;stroke-linejoin:miter;stroke-miterlimit:4;stroke-dasharray:none;stroke-dashoffset:0;stroke-opacity:1"
               d="m -785.36619,912.90911 h 10.47181 l 3.39593,-4.37185 v -12.89952 z"
               id="path77075"
               sodipodi:nodetypes="ccccc" />
          </g>
        </g>
        <g
           aria-label="SDN Kazzazoo#001"
           transform="matrix(0.45807583,0,0,0.45807583,-202.99976,68.794722)"
           id="text82297"
           style="font-size:39.9999px;line-height:1;font-family:Acre;-inkscape-font-specification:Acre;letter-spacing:0px;word-spacing:0px;baseline-shift:baseline;vector-effect:none;stroke-width:0.999999;stop-color:#000000">
          <path
             d="m 1071.489,-363.07945 q -0.1989,-1.86079 -1.6761,-2.89772 -1.4631,-1.03693 -3.8069,-1.03693 -1.6477,0 -2.8266,0.49716 -1.179,0.49716 -1.804,1.34943 -0.625,0.85227 -0.6392,1.94602 0,0.90909 0.4119,1.5767 0.4261,0.66761 1.1506,1.13636 0.7244,0.45454 1.6051,0.76704 0.8807,0.3125 1.7755,0.52557 l 2.7273,0.68182 q 1.6477,0.38352 3.1676,1.03693 1.5341,0.6534 2.7415,1.64772 1.2216,0.99432 1.9318,2.40056 0.7102,1.40625 0.7102,3.29545 0,2.55681 -1.3068,4.50283 -1.3068,1.93181 -3.7784,3.02556 -2.4574,1.07954 -5.9517,1.07954 -3.3949,0 -5.8949,-1.05113 -2.4857,-1.05114 -3.892,-3.06818 -1.392,-2.01704 -1.5057,-4.91476 h 5.1847 q 0.1136,1.51989 0.9375,2.52841 0.8238,1.00852 2.1449,1.50567 1.3352,0.49716 2.9829,0.49716 1.7188,0 3.0114,-0.51136 1.3068,-0.52557 2.0454,-1.44886 0.7386,-0.9375 0.7529,-2.1875 -0.014,-1.13636 -0.6677,-1.87499 -0.6534,-0.75284 -1.8323,-1.25 -1.1648,-0.51136 -2.7273,-0.90909 l -3.3097,-0.85227 q -3.5937,-0.92329 -5.6818,-2.79829 -2.0738,-1.8892 -2.0738,-5.01419 0,-2.57101 1.392,-4.50283 1.4063,-1.93181 3.821,-2.99715 2.4148,-1.07954 5.4688,-1.07954 3.0966,0 5.4261,1.07954 2.3437,1.06534 3.679,2.96874 1.3352,1.8892 1.3778,4.34658 z"
             style="font-family:Inter;-inkscape-font-specification:Inter"
             id="path847" />
          <path
             d="m 1091.5031,-341.98575 h -9.8579 v -29.09084 h 10.0568 q 4.3324,0 7.4431,1.74716 3.125,1.73295 4.8012,4.98578 1.6761,3.25284 1.6761,7.78407 0,4.54545 -1.6903,7.81248 -1.6762,3.26704 -4.8438,5.0142 -3.1534,1.74715 -7.5852,1.74715 z m -4.588,-4.55965 h 4.3323 q 3.0398,0 5.071,-1.10795 2.0313,-1.12215 3.054,-3.33806 1.0227,-2.23011 1.0227,-5.56817 0,-3.33806 -1.0227,-5.53975 -1.0227,-2.21591 -3.0255,-3.30966 -1.9887,-1.10795 -4.9432,-1.10795 h -4.4886 z"
             style="font-family:Inter;-inkscape-font-specification:Inter"
             id="path849" />
          <path
             d="m 1134.5285,-371.07659 v 29.09084 h -4.6875 l -13.7073,-19.81529 h -0.2415 v 19.81529 h -5.2699 v -29.09084 h 4.7159 l 13.6932,19.8295 h 0.2556 v -19.8295 z"
             style="font-family:Inter;-inkscape-font-specification:Inter"
             id="path851" />
          <path
             d="m 1150.1818,-341.98575 v -29.09084 h 5.2699 v 13.36645 h 0.3551 l 11.3494,-13.36645 h 6.4347 l -11.25,13.05395 11.3494,16.03689 h -6.3352 l -8.679,-12.47156 -3.2244,3.80681 v 8.66475 z"
             style="font-family:Inter;-inkscape-font-specification:Inter"
             id="path853" />
          <path
             d="m 1183.3067,-341.54541 q -2.0738,0 -3.7358,-0.73863 -1.6477,-0.75284 -2.6136,-2.21591 -0.9517,-1.46306 -0.9517,-3.60794 0,-1.84659 0.6818,-3.05397 0.6818,-1.20739 1.8608,-1.93182 1.179,-0.72443 2.6563,-1.09374 1.4914,-0.38352 3.0823,-0.55398 1.9176,-0.19886 3.1108,-0.35511 1.1932,-0.17046 1.733,-0.51136 0.5539,-0.35512 0.5539,-1.09375 v -0.0852 q 0,-1.60511 -0.9517,-2.48579 -0.9517,-0.88068 -2.7414,-0.88068 -1.8892,0 -2.9972,0.82386 -1.0937,0.82387 -1.4772,1.94602 l -4.8012,-0.68181 q 0.5682,-1.98864 1.875,-3.32386 1.3068,-1.34943 3.196,-2.01704 1.8892,-0.68182 4.1762,-0.68182 1.5767,0 3.1392,0.36932 1.5625,0.36932 2.8551,1.22159 1.2926,0.83807 2.0738,2.28693 0.7955,1.44886 0.7955,3.62215 v 14.60223 h -4.9432 v -2.99715 h -0.1704 q -0.4688,0.90909 -1.3211,1.70454 -0.838,0.78125 -2.1164,1.2642 -1.2642,0.46875 -2.9688,0.46875 z m 1.3352,-3.7784 q 1.5483,0 2.6847,-0.61079 1.1364,-0.625 1.7472,-1.64773 0.625,-1.02272 0.625,-2.2301 v -2.57102 q -0.2415,0.19886 -0.8239,0.36932 -0.5682,0.17045 -1.2784,0.29829 -0.7102,0.12784 -1.4063,0.22727 -0.696,0.0994 -1.2073,0.17046 -1.1506,0.15625 -2.0597,0.51136 -0.9091,0.35511 -1.4347,0.99432 -0.5255,0.625 -0.5255,1.61931 0,1.42045 1.0369,2.14488 1.0369,0.72443 2.642,0.72443 z"
             style="font-family:Inter;-inkscape-font-specification:Inter"
             id="path855" />
          <path
             d="m 1199.7271,-341.98575 v -3.26704 l 11.25,-14.10507 v -0.18466 h -10.8807 v -4.26136 h 17.1733 v 3.50852 l -10.7102,13.8636 v 0.18466 h 11.0795 v 4.26135 z"
             style="font-family:Inter;-inkscape-font-specification:Inter"
             id="path857" />
          <path
             d="m 1222.1986,-341.98575 v -3.26704 l 11.25,-14.10507 v -0.18466 h -10.8807 v -4.26136 h 17.1733 v 3.50852 l -10.7102,13.8636 v 0.18466 h 11.0795 v 4.26135 z"
             style="font-family:Inter;-inkscape-font-specification:Inter"
             id="path859" />
          <path
             d="m 1251.2326,-341.54541 q -2.0739,0 -3.7358,-0.73863 -1.6477,-0.75284 -2.6136,-2.21591 -0.9517,-1.46306 -0.9517,-3.60794 0,-1.84659 0.6818,-3.05397 0.6818,-1.20739 1.8608,-1.93182 1.1789,-0.72443 2.6562,-1.09374 1.4915,-0.38352 3.0824,-0.55398 1.9176,-0.19886 3.1108,-0.35511 1.1932,-0.17046 1.7329,-0.51136 0.554,-0.35512 0.554,-1.09375 v -0.0852 q 0,-1.60511 -0.9517,-2.48579 -0.9517,-0.88068 -2.7415,-0.88068 -1.8892,0 -2.9971,0.82386 -1.0938,0.82387 -1.4773,1.94602 l -4.8011,-0.68181 q 0.5682,-1.98864 1.875,-3.32386 1.3068,-1.34943 3.196,-2.01704 1.8892,-0.68182 4.1761,-0.68182 1.5767,0 3.1392,0.36932 1.5625,0.36932 2.8551,1.22159 1.2926,0.83807 2.0739,2.28693 0.7954,1.44886 0.7954,3.62215 v 14.60223 h -4.9431 v -2.99715 h -0.1705 q -0.4687,0.90909 -1.321,1.70454 -0.8381,0.78125 -2.1165,1.2642 -1.2642,0.46875 -2.9687,0.46875 z m 1.3352,-3.7784 q 1.5483,0 2.6847,-0.61079 1.1363,-0.625 1.7471,-1.64773 0.625,-1.02272 0.625,-2.2301 v -2.57102 q -0.2415,0.19886 -0.8239,0.36932 -0.5681,0.17045 -1.2784,0.29829 -0.7102,0.12784 -1.4062,0.22727 -0.696,0.0994 -1.2074,0.17046 -1.1506,0.15625 -2.0596,0.51136 -0.9091,0.35511 -1.4347,0.99432 -0.5256,0.625 -0.5256,1.61931 0,1.42045 1.037,2.14488 1.0369,0.72443 2.642,0.72443 z"
             style="font-family:Inter;-inkscape-font-specification:Inter"
             id="path861" />
          <path
             d="m 1267.653,-341.98575 v -3.26704 l 11.2499,-14.10507 v -0.18466 h -10.8806 v -4.26136 h 17.1732 v 3.50852 l -10.7102,13.8636 v 0.18466 h 11.0796 v 4.26135 z"
             style="font-family:Inter;-inkscape-font-specification:Inter"
             id="path863" />
          <path
             d="m 1299.3006,-341.55961 q -3.196,0 -5.5398,-1.40625 -2.3437,-1.40625 -3.6363,-3.93465 -1.2784,-2.5284 -1.2784,-5.90908 0,-3.38067 1.2784,-5.92328 1.2926,-2.5426 3.6363,-3.94885 2.3438,-1.40625 5.5398,-1.40625 3.196,0 5.5397,1.40625 2.3438,1.40625 3.6222,3.94885 1.2926,2.54261 1.2926,5.92328 0,3.38068 -1.2926,5.90908 -1.2784,2.5284 -3.6222,3.93465 -2.3437,1.40625 -5.5397,1.40625 z m 0.028,-4.11931 q 1.7329,0 2.8977,-0.9517 1.1648,-0.96591 1.733,-2.58522 0.5824,-1.61932 0.5824,-3.60795 0,-2.00284 -0.5824,-3.62215 -0.5682,-1.63352 -1.733,-2.59943 -1.1648,-0.9659 -2.8977,-0.9659 -1.7756,0 -2.9545,0.9659 -1.1648,0.96591 -1.7472,2.59943 -0.5682,1.61931 -0.5682,3.62215 0,1.98863 0.5682,3.60795 0.5824,1.61931 1.7472,2.58522 1.1789,0.9517 2.9545,0.9517 z"
             style="font-family:Inter;-inkscape-font-specification:Inter"
             id="path865" />
          <path
             d="m 1323.6187,-341.55961 q -3.196,0 -5.5398,-1.40625 -2.3437,-1.40625 -3.6363,-3.93465 -1.2784,-2.5284 -1.2784,-5.90908 0,-3.38067 1.2784,-5.92328 1.2926,-2.5426 3.6363,-3.94885 2.3438,-1.40625 5.5398,-1.40625 3.196,0 5.5397,1.40625 2.3438,1.40625 3.6222,3.94885 1.2926,2.54261 1.2926,5.92328 0,3.38068 -1.2926,5.90908 -1.2784,2.5284 -3.6222,3.93465 -2.3437,1.40625 -5.5397,1.40625 z m 0.028,-4.11931 q 1.7329,0 2.8977,-0.9517 1.1648,-0.96591 1.733,-2.58522 0.5824,-1.61932 0.5824,-3.60795 0,-2.00284 -0.5824,-3.62215 -0.5682,-1.63352 -1.733,-2.59943 -1.1648,-0.9659 -2.8977,-0.9659 -1.7756,0 -2.9545,0.9659 -1.1648,0.96591 -1.7472,2.59943 -0.5682,1.61931 -0.5682,3.62215 0,1.98863 0.5682,3.60795 0.5824,1.61931 1.7472,2.58522 1.1789,0.9517 2.9545,0.9517 z"
             style="font-family:Inter;-inkscape-font-specification:Inter"
             id="path867" />
          <path
             d="m 1349.3856,-341.98575 4.7727,-29.09084 h 3.9773 l -4.7727,29.09084 z m -13.1107,-7.49998 0.6676,-3.97726 h 22.3863 l -0.6676,3.97726 z m 2.8835,7.49998 4.7727,-29.09084 h 3.9773 l -4.7728,29.09084 z m -1.1932,-17.61359 0.6534,-3.97726 h 22.3863 l -0.6534,3.97726 z"
             style="font-family:Inter;-inkscape-font-specification:Inter"
             id="path869" />
          <path
             d="m 1374.8401,-341.43177 q -3.5085,0 -6.0227,-1.77557 -2.5,-1.78976 -3.8494,-5.15623 -1.3352,-3.38068 -1.3352,-8.13919 0.014,-4.75851 1.3494,-8.09657 1.3494,-3.35226 3.8494,-5.11362 2.5142,-1.76136 6.0085,-1.76136 3.4943,0 6.0085,1.76136 2.5142,1.76136 3.8494,5.11362 1.3495,3.35227 1.3495,8.09657 0,4.77272 -1.3495,8.15339 -1.3352,3.36647 -3.8494,5.14203 -2.5,1.77557 -6.0085,1.77557 z m 0,-4.44601 q 2.7273,0 4.304,-2.68466 1.5909,-2.69885 1.5909,-7.94032 0,-3.4659 -0.7244,-5.82385 -0.7245,-2.35795 -2.0455,-3.55112 -1.321,-1.20739 -3.125,-1.20739 -2.7131,0 -4.2898,2.69886 -1.5767,2.68465 -1.5909,7.8835 -0.014,3.48011 0.6961,5.85226 0.7244,2.37215 2.0454,3.57954 1.321,1.19318 3.1392,1.19318 z"
             style="font-family:Inter;-inkscape-font-specification:Inter"
             id="path871" />
          <path
             d="m 1401.5161,-341.43177 q -3.5085,0 -6.0227,-1.77557 -2.5,-1.78976 -3.8494,-5.15623 -1.3352,-3.38068 -1.3352,-8.13919 0.014,-4.75851 1.3494,-8.09657 1.3494,-3.35226 3.8494,-5.11362 2.5142,-1.76136 6.0085,-1.76136 3.4943,0 6.0085,1.76136 2.5142,1.76136 3.8495,5.11362 1.3494,3.35227 1.3494,8.09657 0,4.77272 -1.3494,8.15339 -1.3353,3.36647 -3.8495,5.14203 -2.5,1.77557 -6.0085,1.77557 z m 0,-4.44601 q 2.7273,0 4.304,-2.68466 1.5909,-2.69885 1.5909,-7.94032 0,-3.4659 -0.7244,-5.82385 -0.7245,-2.35795 -2.0455,-3.55112 -1.321,-1.20739 -3.125,-1.20739 -2.713,0 -4.2897,2.69886 -1.5767,2.68465 -1.5909,7.8835 -0.014,3.48011 0.696,5.85226 0.7244,2.37215 2.0454,3.57954 1.3211,1.19318 3.1392,1.19318 z"
             style="font-family:Inter;-inkscape-font-specification:Inter"
             id="path873" />
          <path
             d="m 1429.2717,-371.07659 v 29.09084 h -5.2699 v -23.96301 h -0.1704 l -6.804,4.34658 v -4.82953 l 7.2301,-4.64488 z"
             style="font-family:Inter;-inkscape-font-specification:Inter"
             id="path875" />
        </g>
      </g>
      <g
         id="g8167"
         style="opacity:0.515923">
        <g
           id="g2827"
           transform="translate(0,46.658753)">
          <path
             id="rect2819"
             style="fill:#ff4655;stroke-linecap:round"
             d="m 233.82732,-113.89207 h 34.89533 c 1.08396,0 1.9566,0.87265 1.9566,1.95661 v 34.895327 c 0,1.08396 -0.87264,1.956606 -1.9566,1.956606 h -34.89533 c -1.08396,0 -1.95661,-0.872646 -1.95661,-1.956606 v -34.895327 c 0,-1.08396 0.87265,-1.95661 1.95661,-1.95661 z" />
          <g
             id="g2825"
             style="fill:#ffffff"
             transform="matrix(0.78583731,0,0,0.78583731,869.98019,-808.56032)">
            <path
               style="opacity:1;vector-effect:none;fill:#ffffff;fill-opacity:1;stroke:none;stroke-width:0.264583px;stroke-linecap:butt;stroke-linejoin:miter;stroke-miterlimit:4;stroke-dasharray:none;stroke-dashoffset:0;stroke-opacity:1"
               d="m -803.14098,895.72631 v 13.01332 l 10.67653,12.97723 h 10.20546 z"
               id="path2821"
               sodipodi:nodetypes="ccccc" />
            <path
               style="opacity:1;vector-effect:none;fill:#ffffff;fill-opacity:1;stroke:none;stroke-width:0.264583px;stroke-linecap:butt;stroke-linejoin:miter;stroke-miterlimit:4;stroke-dasharray:none;stroke-dashoffset:0;stroke-opacity:1"
               d="m -785.36619,912.90911 h 10.47181 l 3.39593,-4.37185 v -12.89952 z"
               id="path2823"
               sodipodi:nodetypes="ccccc" />
          </g>
        </g>
        <g
           aria-label="SDN SilverZala#002"
           transform="matrix(0.45807583,0,0,0.45807583,-202.99976,115.45347)"
           id="text2831"
           style="font-size:39.9999px;line-height:1;font-family:Acre;-inkscape-font-specification:Acre;letter-spacing:0px;word-spacing:0px;baseline-shift:baseline;vector-effect:none;stroke-width:0.999999;stop-color:#000000">
          <path
             d="m 1071.489,-363.07945 q -0.1989,-1.86079 -1.6761,-2.89772 -1.4631,-1.03693 -3.8069,-1.03693 -1.6477,0 -2.8266,0.49716 -1.179,0.49716 -1.804,1.34943 -0.625,0.85227 -0.6392,1.94602 0,0.90909 0.4119,1.5767 0.4261,0.66761 1.1506,1.13636 0.7244,0.45454 1.6051,0.76704 0.8807,0.3125 1.7755,0.52557 l 2.7273,0.68182 q 1.6477,0.38352 3.1676,1.03693 1.5341,0.6534 2.7415,1.64772 1.2216,0.99432 1.9318,2.40056 0.7102,1.40625 0.7102,3.29545 0,2.55681 -1.3068,4.50283 -1.3068,1.93181 -3.7784,3.02556 -2.4574,1.07954 -5.9517,1.07954 -3.3949,0 -5.8949,-1.05113 -2.4857,-1.05114 -3.892,-3.06818 -1.392,-2.01704 -1.5057,-4.91476 h 5.1847 q 0.1136,1.51989 0.9375,2.52841 0.8238,1.00852 2.1449,1.50567 1.3352,0.49716 2.9829,0.49716 1.7188,0 3.0114,-0.51136 1.3068,-0.52557 2.0454,-1.44886 0.7386,-0.9375 0.7529,-2.1875 -0.014,-1.13636 -0.6677,-1.87499 -0.6534,-0.75284 -1.8323,-1.25 -1.1648,-0.51136 -2.7273,-0.90909 l -3.3097,-0.85227 q -3.5937,-0.92329 -5.6818,-2.79829 -2.0738,-1.8892 -2.0738,-5.01419 0,-2.57101 1.392,-4.50283 1.4063,-1.93181 3.821,-2.99715 2.4148,-1.07954 5.4688,-1.07954 3.0966,0 5.4261,1.07954 2.3437,1.06534 3.679,2.96874 1.3352,1.8892 1.3778,4.34658 z"
             style="font-family:Inter;-inkscape-font-specification:Inter"
             id="path879" />
          <path
             d="m 1091.5031,-341.98575 h -9.8579 v -29.09084 h 10.0568 q 4.3324,0 7.4431,1.74716 3.125,1.73295 4.8012,4.98578 1.6761,3.25284 1.6761,7.78407 0,4.54545 -1.6903,7.81248 -1.6762,3.26704 -4.8438,5.0142 -3.1534,1.74715 -7.5852,1.74715 z m -4.588,-4.55965 h 4.3323 q 3.0398,0 5.071,-1.10795 2.0313,-1.12215 3.054,-3.33806 1.0227,-2.23011 1.0227,-5.56817 0,-3.33806 -1.0227,-5.53975 -1.0227,-2.21591 -3.0255,-3.30966 -1.9887,-1.10795 -4.9432,-1.10795 h -4.4886 z"
             style="font-family:Inter;-inkscape-font-specification:Inter"
             id="path881" />
          <path
             d="m 1134.5285,-371.07659 v 29.09084 h -4.6875 l -13.7073,-19.81529 h -0.2415 v 19.81529 h -5.2699 v -29.09084 h 4.7159 l 13.6932,19.8295 h 0.2556 v -19.8295 z"
             style="font-family:Inter;-inkscape-font-specification:Inter"
             id="path883" />
          <path
             d="m 1165.9915,-363.07945 q -0.1989,-1.86079 -1.6762,-2.89772 -1.463,-1.03693 -3.8068,-1.03693 -1.6477,0 -2.8267,0.49716 -1.1789,0.49716 -1.8039,1.34943 -0.625,0.85227 -0.6392,1.94602 0,0.90909 0.4119,1.5767 0.4261,0.66761 1.1506,1.13636 0.7244,0.45454 1.6051,0.76704 0.8806,0.3125 1.7755,0.52557 l 2.7273,0.68182 q 1.6477,0.38352 3.1676,1.03693 1.5341,0.6534 2.7415,1.64772 1.2216,0.99432 1.9318,2.40056 0.7102,1.40625 0.7102,3.29545 0,2.55681 -1.3068,4.50283 -1.3068,1.93181 -3.7784,3.02556 -2.4574,1.07954 -5.9517,1.07954 -3.3949,0 -5.8949,-1.05113 -2.4858,-1.05114 -3.892,-3.06818 -1.392,-2.01704 -1.5057,-4.91476 h 5.1847 q 0.1136,1.51989 0.9375,2.52841 0.8238,1.00852 2.1448,1.50567 1.3353,0.49716 2.983,0.49716 1.7187,0 3.0113,-0.51136 1.3069,-0.52557 2.0455,-1.44886 0.7386,-0.9375 0.7528,-2.1875 -0.014,-1.13636 -0.6676,-1.87499 -0.6534,-0.75284 -1.8324,-1.25 -1.1647,-0.51136 -2.7272,-0.90909 l -3.3097,-0.85227 q -3.5937,-0.92329 -5.6818,-2.79829 -2.0738,-1.8892 -2.0738,-5.01419 0,-2.57101 1.392,-4.50283 1.4062,-1.93181 3.821,-2.99715 2.4148,-1.07954 5.4688,-1.07954 3.0965,0 5.4261,1.07954 2.3437,1.06534 3.6789,2.96874 1.3353,1.8892 1.3779,4.34658 z"
             style="font-family:Inter;-inkscape-font-specification:Inter"
             id="path885" />
          <path
             d="m 1175.9204,-341.98575 v -21.81813 h 5.142 v 21.81813 z m 2.5852,-24.91471 q -1.2216,0 -2.1023,-0.80966 -0.8806,-0.82386 -0.8806,-1.97442 0,-1.16477 0.8806,-1.97443 0.8807,-0.82386 2.1023,-0.82386 1.2358,0 2.1023,0.82386 0.8807,0.80966 0.8807,1.97443 0,1.15056 -0.8807,1.97442 -0.8665,0.80966 -2.1023,0.80966 z"
             style="font-family:Inter;-inkscape-font-specification:Inter"
             id="path887" />
          <path
             d="m 1191.4885,-371.07659 v 29.09084 h -5.142 v -29.09084 z"
             style="font-family:Inter;-inkscape-font-specification:Inter"
             id="path889" />
          <path
             d="m 1216.2611,-363.80388 -7.7698,21.81813 h -5.6818 l -7.7699,-21.81813 h 5.4829 l 5.0142,16.20735 h 0.2273 l 5.0284,-16.20735 z"
             style="font-family:Inter;-inkscape-font-specification:Inter"
             id="path891" />
          <path
             d="m 1228.7184,-341.55961 q -3.2813,0 -5.6676,-1.36364 -2.3722,-1.37783 -3.6506,-3.89203 -1.2784,-2.5284 -1.2784,-5.95169 0,-3.36647 1.2784,-5.90908 1.2926,-2.55681 3.608,-3.97726 2.3153,-1.43466 5.4403,-1.43466 2.017,0 3.8068,0.65341 1.804,0.6392 3.1818,1.98863 1.3921,1.34943 2.1875,3.43749 0.7955,2.07386 0.7955,4.94317 v 1.5767 h -17.8835 v -3.4659 h 12.9545 q -0.014,-1.47727 -0.6392,-2.62783 -0.625,-1.16477 -1.7472,-1.83238 -1.1079,-0.66761 -2.5852,-0.66761 -1.5767,0 -2.7699,0.76704 -1.1931,0.75284 -1.8607,1.98863 -0.6535,1.22159 -0.6677,2.68465 v 3.02556 q 0,1.90341 0.6961,3.26704 0.696,1.34943 1.946,2.07386 1.25,0.71023 2.9261,0.71023 1.1222,0 2.0313,-0.3125 0.909,-0.32671 1.5767,-0.95171 0.6676,-0.62499 1.0085,-1.54829 l 4.8011,0.53977 q -0.4545,1.90341 -1.7329,3.32386 -1.2643,1.40625 -3.2387,2.18749 -1.9744,0.76705 -4.517,0.76705 z"
             style="font-family:Inter;-inkscape-font-specification:Inter"
             id="path893" />
          <path
             d="m 1242.7666,-341.98575 v -21.81813 h 4.9858 v 3.63636 h 0.2273 q 0.5966,-1.8892 2.0454,-2.91193 1.4631,-1.03693 3.3381,-1.03693 0.4261,0 0.9517,0.0426 0.5397,0.0284 0.8949,0.0994 v 4.7301 q -0.3267,-0.11363 -1.037,-0.19886 -0.696,-0.0994 -1.3494,-0.0994 -1.4062,0 -2.5284,0.61079 -1.1079,0.59659 -1.7472,1.66193 -0.6392,1.06534 -0.6392,2.45738 v 12.82667 z"
             style="font-family:Inter;-inkscape-font-specification:Inter"
             id="path895" />
          <path
             d="m 1256.9569,-341.98575 v -3.28124 l 14.9147,-21.39199 h -15 v -4.41761 h 21.5341 v 3.28125 l -14.9005,21.39199 h 14.9857 v 4.4176 z"
             style="font-family:Inter;-inkscape-font-specification:Inter"
             id="path897" />
          <path
             d="m 1289.6556,-341.54541 q -2.0738,0 -3.7357,-0.73863 -1.6478,-0.75284 -2.6137,-2.21591 -0.9517,-1.46306 -0.9517,-3.60794 0,-1.84659 0.6818,-3.05397 0.6819,-1.20739 1.8608,-1.93182 1.179,-0.72443 2.6563,-1.09374 1.4915,-0.38352 3.0824,-0.55398 1.9176,-0.19886 3.1107,-0.35511 1.1932,-0.17046 1.733,-0.51136 0.554,-0.35512 0.554,-1.09375 v -0.0852 q 0,-1.60511 -0.9517,-2.48579 -0.9517,-0.88068 -2.7415,-0.88068 -1.8892,0 -2.9972,0.82386 -1.0937,0.82387 -1.4772,1.94602 l -4.8011,-0.68181 q 0.5681,-1.98864 1.8749,-3.32386 1.3069,-1.34943 3.1961,-2.01704 1.8892,-0.68182 4.1761,-0.68182 1.5767,0 3.1392,0.36932 1.5625,0.36932 2.8551,1.22159 1.2926,0.83807 2.0739,2.28693 0.7954,1.44886 0.7954,3.62215 v 14.60223 h -4.9432 v -2.99715 h -0.1704 q -0.4688,0.90909 -1.321,1.70454 -0.8381,0.78125 -2.1165,1.2642 -1.2642,0.46875 -2.9688,0.46875 z m 1.3353,-3.7784 q 1.5483,0 2.6846,-0.61079 1.1364,-0.625 1.7472,-1.64773 0.625,-1.02272 0.625,-2.2301 v -2.57102 q -0.2415,0.19886 -0.8239,0.36932 -0.5682,0.17045 -1.2784,0.29829 -0.7102,0.12784 -1.4062,0.22727 -0.6961,0.0994 -1.2074,0.17046 -1.1506,0.15625 -2.0597,0.51136 -0.9091,0.35511 -1.4346,0.99432 -0.5256,0.625 -0.5256,1.61931 0,1.42045 1.0369,2.14488 1.037,0.72443 2.6421,0.72443 z"
             style="font-family:Inter;-inkscape-font-specification:Inter"
             id="path899" />
          <path
             d="m 1311.5022,-371.07659 v 29.09084 h -5.1421 v -29.09084 z"
             style="font-family:Inter;-inkscape-font-specification:Inter"
             id="path901" />
          <path
             d="m 1323.0646,-341.54541 q -2.0739,0 -3.7358,-0.73863 -1.6477,-0.75284 -2.6136,-2.21591 -0.9517,-1.46306 -0.9517,-3.60794 0,-1.84659 0.6818,-3.05397 0.6818,-1.20739 1.8608,-1.93182 1.179,-0.72443 2.6562,-1.09374 1.4915,-0.38352 3.0824,-0.55398 1.9176,-0.19886 3.1108,-0.35511 1.1932,-0.17046 1.7329,-0.51136 0.554,-0.35512 0.554,-1.09375 v -0.0852 q 0,-1.60511 -0.9517,-2.48579 -0.9517,-0.88068 -2.7415,-0.88068 -1.8891,0 -2.9971,0.82386 -1.0937,0.82387 -1.4773,1.94602 l -4.8011,-0.68181 q 0.5682,-1.98864 1.875,-3.32386 1.3068,-1.34943 3.196,-2.01704 1.8892,-0.68182 4.1761,-0.68182 1.5767,0 3.1392,0.36932 1.5625,0.36932 2.8551,1.22159 1.2927,0.83807 2.0739,2.28693 0.7955,1.44886 0.7955,3.62215 v 14.60223 h -4.9432 v -2.99715 h -0.1705 q -0.4687,0.90909 -1.321,1.70454 -0.8381,0.78125 -2.1165,1.2642 -1.2642,0.46875 -2.9687,0.46875 z m 1.3352,-3.7784 q 1.5483,0 2.6847,-0.61079 1.1363,-0.625 1.7471,-1.64773 0.625,-1.02272 0.625,-2.2301 v -2.57102 q -0.2414,0.19886 -0.8238,0.36932 -0.5682,0.17045 -1.2784,0.29829 -0.7103,0.12784 -1.4063,0.22727 -0.696,0.0994 -1.2074,0.17046 -1.1505,0.15625 -2.0596,0.51136 -0.9091,0.35511 -1.4347,0.99432 -0.5255,0.625 -0.5255,1.61931 0,1.42045 1.0369,2.14488 1.0369,0.72443 2.642,0.72443 z"
             style="font-family:Inter;-inkscape-font-specification:Inter"
             id="path903" />
          <path
             d="m 1350.735,-341.98575 4.7727,-29.09084 h 3.9772 l -4.7727,29.09084 z m -13.1108,-7.49998 0.6676,-3.97726 h 22.3863 l -0.6676,3.97726 z m 2.8835,7.49998 4.7727,-29.09084 h 3.9773 l -4.7727,29.09084 z m -1.1932,-17.61359 0.6534,-3.97726 h 22.3864 l -0.6535,3.97726 z"
             style="font-family:Inter;-inkscape-font-specification:Inter"
             id="path905" />
          <path
             d="m 1376.1894,-341.43177 q -3.5085,0 -6.0227,-1.77557 -2.5,-1.78976 -3.8494,-5.15623 -1.3352,-3.38068 -1.3352,-8.13919 0.014,-4.75851 1.3494,-8.09657 1.3494,-3.35226 3.8494,-5.11362 2.5142,-1.76136 6.0085,-1.76136 3.4944,0 6.0086,1.76136 2.5142,1.76136 3.8494,5.11362 1.3494,3.35227 1.3494,8.09657 0,4.77272 -1.3494,8.15339 -1.3352,3.36647 -3.8494,5.14203 -2.5,1.77557 -6.0086,1.77557 z m 0,-4.44601 q 2.7273,0 4.304,-2.68466 1.5909,-2.69885 1.5909,-7.94032 0,-3.4659 -0.7244,-5.82385 -0.7244,-2.35795 -2.0455,-3.55112 -1.321,-1.20739 -3.125,-1.20739 -2.713,0 -4.2897,2.69886 -1.5767,2.68465 -1.5909,7.8835 -0.014,3.48011 0.696,5.85226 0.7244,2.37215 2.0454,3.57954 1.3211,1.19318 3.1392,1.19318 z"
             style="font-family:Inter;-inkscape-font-specification:Inter"
             id="path907" />
          <path
             d="m 1402.8655,-341.43177 q -3.5085,0 -6.0227,-1.77557 -2.5,-1.78976 -3.8495,-5.15623 -1.3352,-3.38068 -1.3352,-8.13919 0.014,-4.75851 1.3494,-8.09657 1.3495,-3.35226 3.8495,-5.11362 2.5142,-1.76136 6.0085,-1.76136 3.4943,0 6.0085,1.76136 2.5142,1.76136 3.8494,5.11362 1.3494,3.35227 1.3494,8.09657 0,4.77272 -1.3494,8.15339 -1.3352,3.36647 -3.8494,5.14203 -2.5,1.77557 -6.0085,1.77557 z m 0,-4.44601 q 2.7272,0 4.3039,-2.68466 1.5909,-2.69885 1.5909,-7.94032 0,-3.4659 -0.7244,-5.82385 -0.7244,-2.35795 -2.0454,-3.55112 -1.3211,-1.20739 -3.125,-1.20739 -2.7131,0 -4.2898,2.69886 -1.5767,2.68465 -1.5909,7.8835 -0.014,3.48011 0.696,5.85226 0.7245,2.37215 2.0455,3.57954 1.321,1.19318 3.1392,1.19318 z"
             style="font-family:Inter;-inkscape-font-specification:Inter"
             id="path909" />
          <path
             d="m 1418.7887,-341.98575 v -3.80681 l 10.0994,-9.90054 q 1.4488,-1.46307 2.4148,-2.59943 0.9659,-1.13636 1.4488,-2.2017 0.483,-1.06533 0.483,-2.27272 0,-1.37783 -0.625,-2.35795 -0.625,-0.99431 -1.7188,-1.53408 -1.0937,-0.53977 -2.4858,-0.53977 -1.4346,0 -2.5142,0.59659 -1.0795,0.58238 -1.6761,1.66192 -0.5824,1.07955 -0.5824,2.57102 h -5.0142 q 0,-2.76988 1.2642,-4.81533 1.2642,-2.04545 3.4801,-3.16761 2.2301,-1.12215 5.1137,-1.12215 2.9261,0 5.142,1.09375 2.2159,1.09374 3.4375,2.99715 1.2358,1.9034 1.2358,4.34658 0,1.63352 -0.625,3.21022 -0.625,1.5767 -2.2017,3.49431 -1.5625,1.91761 -4.3892,4.64487 l -5.0142,5.09942 v 0.19886 h 12.6704 v 4.4034 z"
             style="font-family:Inter;-inkscape-font-specification:Inter"
             id="path911" />
        </g>
      </g>
      <g
         id="g8158"
         style="opacity:0.153274">
        <g
           id="g2841"
           transform="translate(0,96.886635)">
          <path
             id="rect2833"
             style="fill:#ff4655;stroke-linecap:round"
             d="m 233.82732,-113.89207 h 34.89533 c 1.08396,0 1.9566,0.87265 1.9566,1.95661 v 34.895327 c 0,1.08396 -0.87264,1.956606 -1.9566,1.956606 h -34.89533 c -1.08396,0 -1.95661,-0.872646 -1.95661,-1.956606 v -34.895327 c 0,-1.08396 0.87265,-1.95661 1.95661,-1.95661 z" />
          <g
             id="g2839"
             style="fill:#ffffff"
             transform="matrix(0.78583731,0,0,0.78583731,869.98019,-808.56032)">
            <path
               style="opacity:1;vector-effect:none;fill:#ffffff;fill-opacity:1;stroke:none;stroke-width:0.264583px;stroke-linecap:butt;stroke-linejoin:miter;stroke-miterlimit:4;stroke-dasharray:none;stroke-dashoffset:0;stroke-opacity:1"
               d="m -803.14098,895.72631 v 13.01332 l 10.67653,12.97723 h 10.20546 z"
               id="path2835"
               sodipodi:nodetypes="ccccc" />
            <path
               style="opacity:1;vector-effect:none;fill:#ffffff;fill-opacity:1;stroke:none;stroke-width:0.264583px;stroke-linecap:butt;stroke-linejoin:miter;stroke-miterlimit:4;stroke-dasharray:none;stroke-dashoffset:0;stroke-opacity:1"
               d="m -785.36619,912.90911 h 10.47181 l 3.39593,-4.37185 v -12.89952 z"
               id="path2837"
               sodipodi:nodetypes="ccccc" />
          </g>
        </g>
        <g
           aria-label="SDN TheFlash1205#003"
           transform="matrix(0.45807583,0,0,0.45807583,-202.99976,165.68135)"
           id="text2845"
           style="font-size:39.9999px;line-height:1;font-family:Acre;-inkscape-font-specification:Acre;letter-spacing:0px;word-spacing:0px;baseline-shift:baseline;vector-effect:none;stroke-width:0.999999;stop-color:#000000">
          <path
             d="m 1071.489,-363.07945 q -0.1989,-1.86079 -1.6761,-2.89772 -1.4631,-1.03693 -3.8069,-1.03693 -1.6477,0 -2.8266,0.49716 -1.179,0.49716 -1.804,1.34943 -0.625,0.85227 -0.6392,1.94602 0,0.90909 0.4119,1.5767 0.4261,0.66761 1.1506,1.13636 0.7244,0.45454 1.6051,0.76704 0.8807,0.3125 1.7755,0.52557 l 2.7273,0.68182 q 1.6477,0.38352 3.1676,1.03693 1.5341,0.6534 2.7415,1.64772 1.2216,0.99432 1.9318,2.40056 0.7102,1.40625 0.7102,3.29545 0,2.55681 -1.3068,4.50283 -1.3068,1.93181 -3.7784,3.02556 -2.4574,1.07954 -5.9517,1.07954 -3.3949,0 -5.8949,-1.05113 -2.4857,-1.05114 -3.892,-3.06818 -1.392,-2.01704 -1.5057,-4.91476 h 5.1847 q 0.1136,1.51989 0.9375,2.52841 0.8238,1.00852 2.1449,1.50567 1.3352,0.49716 2.9829,0.49716 1.7188,0 3.0114,-0.51136 1.3068,-0.52557 2.0454,-1.44886 0.7386,-0.9375 0.7529,-2.1875 -0.014,-1.13636 -0.6677,-1.87499 -0.6534,-0.75284 -1.8323,-1.25 -1.1648,-0.51136 -2.7273,-0.90909 l -3.3097,-0.85227 q -3.5937,-0.92329 -5.6818,-2.79829 -2.0738,-1.8892 -2.0738,-5.01419 0,-2.57101 1.392,-4.50283 1.4063,-1.93181 3.821,-2.99715 2.4148,-1.07954 5.4688,-1.07954 3.0966,0 5.4261,1.07954 2.3437,1.06534 3.679,2.96874 1.3352,1.8892 1.3778,4.34658 z"
             style="font-family:Inter;-inkscape-font-specification:Inter"
             id="path915" />
          <path
             d="m 1091.5031,-341.98575 h -9.8579 v -29.09084 h 10.0568 q 4.3324,0 7.4431,1.74716 3.125,1.73295 4.8012,4.98578 1.6761,3.25284 1.6761,7.78407 0,4.54545 -1.6903,7.81248 -1.6762,3.26704 -4.8438,5.0142 -3.1534,1.74715 -7.5852,1.74715 z m -4.588,-4.55965 h 4.3323 q 3.0398,0 5.071,-1.10795 2.0313,-1.12215 3.054,-3.33806 1.0227,-2.23011 1.0227,-5.56817 0,-3.33806 -1.0227,-5.53975 -1.0227,-2.21591 -3.0255,-3.30966 -1.9887,-1.10795 -4.9432,-1.10795 h -4.4886 z"
             style="font-family:Inter;-inkscape-font-specification:Inter"
             id="path917" />
          <path
             d="m 1134.5285,-371.07659 v 29.09084 h -4.6875 l -13.7073,-19.81529 h -0.2415 v 19.81529 h -5.2699 v -29.09084 h 4.7159 l 13.6932,19.8295 h 0.2556 v -19.8295 z"
             style="font-family:Inter;-inkscape-font-specification:Inter"
             id="path919" />
          <path
             d="m 1148.9034,-366.65898 v -4.41761 h 23.2102 v 4.41761 h -8.9914 v 24.67323 h -5.2273 v -24.67323 z"
             style="font-family:Inter;-inkscape-font-specification:Inter"
             id="path921" />
          <path
             d="m 1181.4885,-354.76981 v 12.78406 h -5.142 v -29.09084 h 5.0284 v 10.98009 h 0.2557 q 0.767,-1.84659 2.3721,-2.91192 1.6193,-1.07955 4.1193,-1.07955 2.2728,0 3.9631,0.95171 1.6903,0.9517 2.6136,2.78408 0.9375,1.83238 0.9375,4.47442 v 13.89201 h -5.142 v -13.09656 q 0,-2.2017 -1.1364,-3.42328 -1.1221,-1.2358 -3.1534,-1.2358 -1.3636,0 -2.4432,0.59659 -1.0653,0.58239 -1.6761,1.69034 -0.5966,1.10795 -0.5966,2.68465 z"
             style="font-family:Inter;-inkscape-font-specification:Inter"
             id="path923" />
          <path
             d="m 1210.5225,-341.55961 q -3.2813,0 -5.6676,-1.36364 -2.3722,-1.37783 -3.6506,-3.89203 -1.2784,-2.5284 -1.2784,-5.95169 0,-3.36647 1.2784,-5.90908 1.2926,-2.55681 3.608,-3.97726 2.3153,-1.43466 5.4403,-1.43466 2.017,0 3.8068,0.65341 1.804,0.6392 3.1818,1.98863 1.3921,1.34943 2.1875,3.43749 0.7955,2.07386 0.7955,4.94317 v 1.5767 h -17.8835 v -3.4659 h 12.9545 q -0.014,-1.47727 -0.6392,-2.62783 -0.625,-1.16477 -1.7472,-1.83238 -1.1079,-0.66761 -2.5852,-0.66761 -1.5767,0 -2.7699,0.76704 -1.1931,0.75284 -1.8608,1.98863 -0.6534,1.22159 -0.6676,2.68465 v 3.02556 q 0,1.90341 0.6961,3.26704 0.696,1.34943 1.946,2.07386 1.25,0.71023 2.9261,0.71023 1.1222,0 2.0312,-0.3125 0.9091,-0.32671 1.5767,-0.95171 0.6677,-0.62499 1.0086,-1.54829 l 4.8011,0.53977 q -0.4546,1.90341 -1.733,3.32386 -1.2642,1.40625 -3.2386,2.18749 -1.9744,0.76705 -4.517,0.76705 z"
             style="font-family:Inter;-inkscape-font-specification:Inter"
             id="path925" />
          <path
             d="m 1224.798,-341.98575 v -29.09084 h 18.6363 v 4.41761 h -13.3665 v 7.89771 h 12.0881 v 4.4176 h -12.0881 v 12.35792 z"
             style="font-family:Inter;-inkscape-font-specification:Inter"
             id="path927" />
          <path
             d="m 1253.1359,-371.07659 v 29.09084 h -5.142 v -29.09084 z"
             style="font-family:Inter;-inkscape-font-specification:Inter"
             id="path929" />
          <path
             d="m 1264.6984,-341.54541 q -2.0739,0 -3.7358,-0.73863 -1.6478,-0.75284 -2.6137,-2.21591 -0.9517,-1.46306 -0.9517,-3.60794 0,-1.84659 0.6819,-3.05397 0.6818,-1.20739 1.8607,-1.93182 1.179,-0.72443 2.6563,-1.09374 1.4915,-0.38352 3.0824,-0.55398 1.9176,-0.19886 3.1108,-0.35511 1.1931,-0.17046 1.7329,-0.51136 0.554,-0.35512 0.554,-1.09375 v -0.0852 q 0,-1.60511 -0.9517,-2.48579 -0.9517,-0.88068 -2.7415,-0.88068 -1.8892,0 -2.9971,0.82386 -1.0938,0.82387 -1.4773,1.94602 l -4.8011,-0.68181 q 0.5681,-1.98864 1.875,-3.32386 1.3068,-1.34943 3.196,-2.01704 1.8892,-0.68182 4.1761,-0.68182 1.5767,0 3.1392,0.36932 1.5625,0.36932 2.8551,1.22159 1.2926,0.83807 2.0739,2.28693 0.7954,1.44886 0.7954,3.62215 v 14.60223 h -4.9432 v -2.99715 h -0.1704 q -0.4688,0.90909 -1.321,1.70454 -0.8381,0.78125 -2.1165,1.2642 -1.2642,0.46875 -2.9687,0.46875 z m 1.3352,-3.7784 q 1.5483,0 2.6846,-0.61079 1.1364,-0.625 1.7472,-1.64773 0.625,-1.02272 0.625,-2.2301 v -2.57102 q -0.2415,0.19886 -0.8239,0.36932 -0.5682,0.17045 -1.2784,0.29829 -0.7102,0.12784 -1.4062,0.22727 -0.696,0.0994 -1.2074,0.17046 -1.1506,0.15625 -2.0597,0.51136 -0.9091,0.35511 -1.4346,0.99432 -0.5256,0.625 -0.5256,1.61931 0,1.42045 1.0369,2.14488 1.037,0.72443 2.6421,0.72443 z"
             style="font-family:Inter;-inkscape-font-specification:Inter"
             id="path931" />
          <path
             d="m 1298.6471,-358.03684 -4.6875,0.51136 q -0.1988,-0.71023 -0.696,-1.33523 -0.4829,-0.62499 -1.3068,-1.00852 -0.8239,-0.38352 -2.017,-0.38352 -1.6052,0 -2.6989,0.69602 -1.0795,0.69602 -1.0653,1.80398 -0.014,0.9517 0.696,1.54829 0.7244,0.59659 2.3863,0.98011 l 3.7216,0.79545 q 3.0966,0.66761 4.6023,2.11647 1.5199,1.44886 1.5341,3.79261 -0.014,2.05965 -1.2074,3.63635 -1.179,1.5625 -3.2813,2.44318 -2.1022,0.88068 -4.8295,0.88068 -4.0057,0 -6.4488,-1.67614 -2.4432,-1.69033 -2.912,-4.70169 l 5.0142,-0.48295 q 0.3409,1.47727 1.4489,2.23011 1.1079,0.75284 2.8835,0.75284 1.8324,0 2.9403,-0.75284 1.1222,-0.75284 1.1222,-1.86079 0,-0.9375 -0.7244,-1.5483 -0.7103,-0.61079 -2.2159,-0.93749 l -3.7216,-0.78125 q -3.1392,-0.65341 -4.6449,-2.2017 -1.5057,-1.5625 -1.4915,-3.94885 -0.014,-2.01704 1.0938,-3.49431 1.1221,-1.49148 3.1108,-2.30113 2.0028,-0.82387 4.6164,-0.82387 3.8352,0 6.0369,1.63352 2.216,1.63352 2.7415,4.41761 z"
             style="font-family:Inter;-inkscape-font-specification:Inter"
             id="path933" />
          <path
             d="m 1308.505,-354.76981 v 12.78406 h -5.142 v -29.09084 h 5.0284 v 10.98009 h 0.2557 q 0.767,-1.84659 2.3721,-2.91192 1.6194,-1.07955 4.1194,-1.07955 2.2727,0 3.963,0.95171 1.6904,0.9517 2.6136,2.78408 0.9375,1.83238 0.9375,4.47442 v 13.89201 h -5.142 v -13.09656 q 0,-2.2017 -1.1364,-3.42328 -1.1221,-1.2358 -3.1534,-1.2358 -1.3636,0 -2.4431,0.59659 -1.0654,0.58239 -1.6762,1.69034 -0.5966,1.10795 -0.5966,2.68465 z"
             style="font-family:Inter;-inkscape-font-specification:Inter"
             id="path935" />
          <path
             d="m 1338.0645,-371.07659 v 29.09084 h -5.2699 v -23.96301 h -0.1704 l -6.804,4.34658 v -4.82953 l 7.2301,-4.64488 z"
             style="font-family:Inter;-inkscape-font-specification:Inter"
             id="path937" />
          <path
             d="m 1345.465,-341.98575 v -3.80681 l 10.0994,-9.90054 q 1.4489,-1.46307 2.4148,-2.59943 0.9659,-1.13636 1.4489,-2.2017 0.4829,-1.06533 0.4829,-2.27272 0,-1.37783 -0.625,-2.35795 -0.625,-0.99431 -1.7187,-1.53408 -1.0938,-0.53977 -2.4858,-0.53977 -1.4347,0 -2.5142,0.59659 -1.0795,0.58238 -1.6761,1.66192 -0.5824,1.07955 -0.5824,2.57102 h -5.0142 q 0,-2.76988 1.2642,-4.81533 1.2642,-2.04545 3.4801,-3.16761 2.2301,-1.12215 5.1136,-1.12215 2.9261,0 5.1421,1.09375 2.2159,1.09374 3.4374,2.99715 1.2358,1.9034 1.2358,4.34658 0,1.63352 -0.625,3.21022 -0.625,1.5767 -2.2017,3.49431 -1.5625,1.91761 -4.3892,4.64487 l -5.0141,5.09942 v 0.19886 h 12.6704 v 4.4034 z"
             style="font-family:Inter;-inkscape-font-specification:Inter"
             id="path939" />
          <path
             d="m 1381.0757,-341.43177 q -3.5085,0 -6.0227,-1.77557 -2.5,-1.78976 -3.8494,-5.15623 -1.3352,-3.38068 -1.3352,-8.13919 0.014,-4.75851 1.3494,-8.09657 1.3494,-3.35226 3.8494,-5.11362 2.5142,-1.76136 6.0085,-1.76136 3.4943,0 6.0085,1.76136 2.5142,1.76136 3.8495,5.11362 1.3494,3.35227 1.3494,8.09657 0,4.77272 -1.3494,8.15339 -1.3353,3.36647 -3.8495,5.14203 -2.4999,1.77557 -6.0085,1.77557 z m 0,-4.44601 q 2.7273,0 4.304,-2.68466 1.5909,-2.69885 1.5909,-7.94032 0,-3.4659 -0.7244,-5.82385 -0.7245,-2.35795 -2.0455,-3.55112 -1.321,-1.20739 -3.125,-1.20739 -2.713,0 -4.2897,2.69886 -1.5767,2.68465 -1.5909,7.8835 -0.014,3.48011 0.696,5.85226 0.7244,2.37215 2.0454,3.57954 1.3211,1.19318 3.1392,1.19318 z"
             style="font-family:Inter;-inkscape-font-specification:Inter"
             id="path941" />
          <path
             d="m 1407.1126,-341.58802 q -2.8409,0 -5.0852,-1.06534 -2.2443,-1.07954 -3.5654,-2.95454 -1.3068,-1.87499 -1.392,-4.28976 h 5.1136 q 0.1421,1.78977 1.5483,2.92613 1.4063,1.12215 3.3807,1.12215 1.5483,0 2.7557,-0.71022 1.2073,-0.71023 1.9034,-1.97443 0.696,-1.2642 0.6818,-2.88351 0.014,-1.64773 -0.696,-2.92613 -0.7103,-1.27841 -1.9461,-2.00284 -1.2357,-0.73863 -2.8409,-0.73863 -1.3068,-0.0142 -2.571,0.48295 -1.2642,0.49716 -2.0028,1.30682 l -4.7585,-0.78125 1.5199,-14.99997 h 16.8749 v 4.4034 h -12.5142 l -0.838,7.71305 h 0.1704 q 0.8097,-0.9517 2.287,-1.5767 1.4772,-0.6392 3.2386,-0.6392 2.642,0 4.7159,1.25 2.0738,1.23579 3.267,3.40908 1.1932,2.17329 1.1932,4.97158 0,2.88351 -1.3352,5.14203 -1.321,2.24431 -3.679,3.53692 -2.3437,1.27841 -5.4261,1.27841 z"
             style="font-family:Inter;-inkscape-font-specification:Inter"
             id="path943" />
          <path
             d="m 1433.3198,-341.98575 4.7728,-29.09084 h 3.9772 l -4.7727,29.09084 z m -13.1107,-7.49998 0.6676,-3.97726 h 22.3863 l -0.6676,3.97726 z m 2.8835,7.49998 4.7727,-29.09084 h 3.9773 l -4.7727,29.09084 z m -1.1932,-17.61359 0.6534,-3.97726 h 22.3863 l -0.6534,3.97726 z"
             style="font-family:Inter;-inkscape-font-specification:Inter"
             id="path945" />
          <path
             d="m 1458.7743,-341.43177 q -3.5085,0 -6.0227,-1.77557 -2.5,-1.78976 -3.8494,-5.15623 -1.3352,-3.38068 -1.3352,-8.13919 0.014,-4.75851 1.3494,-8.09657 1.3494,-3.35226 3.8494,-5.11362 2.5142,-1.76136 6.0085,-1.76136 3.4943,0 6.0085,1.76136 2.5142,1.76136 3.8494,5.11362 1.3495,3.35227 1.3495,8.09657 0,4.77272 -1.3495,8.15339 -1.3352,3.36647 -3.8494,5.14203 -2.5,1.77557 -6.0085,1.77557 z m 0,-4.44601 q 2.7273,0 4.304,-2.68466 1.5909,-2.69885 1.5909,-7.94032 0,-3.4659 -0.7244,-5.82385 -0.7245,-2.35795 -2.0455,-3.55112 -1.321,-1.20739 -3.125,-1.20739 -2.713,0 -4.2897,2.69886 -1.5767,2.68465 -1.591,7.8835 -0.014,3.48011 0.6961,5.85226 0.7244,2.37215 2.0454,3.57954 1.321,1.19318 3.1392,1.19318 z"
             style="font-family:Inter;-inkscape-font-specification:Inter"
             id="path947" />
          <path
             d="m 1485.4503,-341.43177 q -3.5085,0 -6.0227,-1.77557 -2.5,-1.78976 -3.8494,-5.15623 -1.3352,-3.38068 -1.3352,-8.13919 0.014,-4.75851 1.3494,-8.09657 1.3494,-3.35226 3.8494,-5.11362 2.5142,-1.76136 6.0085,-1.76136 3.4943,0 6.0085,1.76136 2.5142,1.76136 3.8495,5.11362 1.3494,3.35227 1.3494,8.09657 0,4.77272 -1.3494,8.15339 -1.3353,3.36647 -3.8495,5.14203 -2.4999,1.77557 -6.0085,1.77557 z m 0,-4.44601 q 2.7273,0 4.304,-2.68466 1.5909,-2.69885 1.5909,-7.94032 0,-3.4659 -0.7244,-5.82385 -0.7244,-2.35795 -2.0455,-3.55112 -1.321,-1.20739 -3.125,-1.20739 -2.713,0 -4.2897,2.69886 -1.5767,2.68465 -1.5909,7.8835 -0.014,3.48011 0.696,5.85226 0.7244,2.37215 2.0454,3.57954 1.3211,1.19318 3.1392,1.19318 z"
             style="font-family:Inter;-inkscape-font-specification:Inter"
             id="path949" />
          <path
             d="m 1511.8139,-341.58802 q -3.0682,0 -5.4546,-1.05114 -2.3721,-1.05113 -3.75,-2.92612 -1.3778,-1.875 -1.463,-4.33238 h 5.3409 q 0.071,1.17897 0.7812,2.05965 0.7102,0.86648 1.8892,1.34943 1.179,0.48296 2.6421,0.48296 1.5625,0 2.7698,-0.53978 1.2074,-0.55397 1.8892,-1.53408 0.6819,-0.98011 0.6677,-2.25852 0.014,-1.32102 -0.6819,-2.32954 -0.696,-1.00852 -2.017,-1.5767 -1.3068,-0.56818 -3.1534,-0.56818 h -2.571 v -4.06249 h 2.571 q 1.5199,0 2.6562,-0.52557 1.1506,-0.52556 1.804,-1.47727 0.6534,-0.9659 0.6392,-2.23011 0.014,-1.23579 -0.554,-2.14488 -0.5539,-0.92329 -1.5767,-1.43465 -1.0085,-0.51136 -2.3721,-0.51136 -1.3352,0 -2.4716,0.48295 -1.1364,0.48295 -1.8324,1.37784 -0.696,0.88068 -0.7386,2.10226 h -5.071 q 0.057,-2.44317 1.4062,-4.28976 1.3637,-1.86079 3.6364,-2.89772 2.2727,-1.05113 5.0994,-1.05113 2.9119,0 5.0568,1.09375 2.1591,1.07954 3.3381,2.91192 1.1789,1.83238 1.1789,4.04829 0.014,2.45738 -1.4488,4.1193 -1.4489,1.66193 -3.8068,2.17329 v 0.22728 q 3.0681,0.42613 4.7017,2.27272 1.6477,1.83238 1.6335,4.55965 0,2.44317 -1.3921,4.37498 -1.3778,1.91761 -3.8068,3.01136 -2.4147,1.09375 -5.5397,1.09375 z"
             style="font-family:Inter;-inkscape-font-specification:Inter"
             id="path951" />
        </g>
      </g>
    </g>
  </g>
</svg>
