<?xml version="1.0" encoding="UTF-8" standalone="no"?>
<!-- Created with Inkscape (http://www.inkscape.org/) -->

<svg
   width="132.31659mm"
   height="152.78604mm"
   viewBox="0 0 132.31659 152.78604"
   version="1.1"
   id="svg1342"
   xml:space="preserve"
   inkscape:version="1.2 (dc2aedaf03, 2022-05-15)"
   sodipodi:docname="sdngrysticker.svg"
   xmlns:inkscape="http://www.inkscape.org/namespaces/inkscape"
   xmlns:sodipodi="http://sodipodi.sourceforge.net/DTD/sodipodi-0.dtd"
   xmlns="http://www.w3.org/2000/svg"
   xmlns:svg="http://www.w3.org/2000/svg"><sodipodi:namedview
     id="namedview1344"
     pagecolor="#ffffff"
     bordercolor="#000000"
     borderopacity="0.25"
     inkscape:showpageshadow="2"
     inkscape:pageopacity="0.0"
     inkscape:pagecheckerboard="0"
     inkscape:deskcolor="#d1d1d1"
     inkscape:document-units="mm"
     showgrid="false"
     inkscape:zoom="2.587745"
     inkscape:cx="261.61774"
     inkscape:cy="255.43475"
     inkscape:window-width="3840"
     inkscape:window-height="2066"
     inkscape:window-x="-11"
     inkscape:window-y="-11"
     inkscape:window-maximized="1"
     inkscape:current-layer="layer1" /><defs
     id="defs1339" /><g
     inkscape:label="Layer 1"
     inkscape:groupmode="layer"
     id="layer1"
     transform="translate(7.1631591,-88.44632)"><path
       sodipodi:type="star"
       style="fill:#ff0100;fill-opacity:1;stroke-width:0.264583"
       id="path553"
       inkscape:flatsided="true"
       sodipodi:sides="6"
       sodipodi:cx="66.674995"
       sodipodi:cy="61.118748"
       sodipodi:r1="22.831717"
       sodipodi:r2="11.415859"
       sodipodi:arg1="0.78539816"
       sodipodi:arg2="1.3089969"
       inkscape:rounded="0"
       inkscape:randomized="0"
       d="M 82.819457,77.263209 60.765712,83.172492 44.621251,67.028031 50.530534,44.974286 72.584278,39.065003 88.72874,55.209465 Z"
       inkscape:transform-center-x="4.5228798"
       inkscape:transform-center-y="-2.6112877"
       transform="matrix(3.2319072,-0.86598695,0.86598695,3.2319072,-209.4203,25.048893)" /><g
       id="g83679"
       transform="translate(265.65683,-71.807977)"><g
         aria-label="SDN"
         id="text45705"
         style="font-size:26.9305px;line-height:0;font-family:'Happy markers';-inkscape-font-specification:'Happy markers';letter-spacing:0px;word-spacing:0px;fill:#ffffff;stroke-width:0.673265"><path
           d="m -215.11035,265.36504 -3.47151,4.28679 -4.07639,-2.61679 -1.02567,1.30182 7.27176,5.32561 -3.52411,6.65373 h -8.63933 l -6.03569,-4.79963 2.61678,-4.37883 5.19412,2.93237 0.77583,-1.20977 -7.61365,-4.52348 7.21916,-8.08704 h 6.48278 z"
           style="font-family:'Super Mario 286';-inkscape-font-specification:'Super Mario 286, '"
           id="path825" /><path
           d="m -205.10346,260.30242 5.65436,4.64183 1.15717,10.79587 -5.57546,4.54978 h -11.15091 v -18.77771 z m -3.74765,7.19286 v 5.8779 l 3.62931,-1.27552 v -2.93237 z"
           style="font-family:'Super Mario 286';-inkscape-font-specification:'Super Mario 286, '"
           id="path827" /><path
           d="m -195.64885,261.1966 4.02379,-0.55229 6.31184,8.58673 0.81528,-8.40263 5.78585,0.49968 -0.81528,18.89606 -4.51034,0.39449 -5.83844,-7.41641 -0.263,7.63996 -6.36443,-0.84158 z"
           style="font-family:'Super Mario 286';-inkscape-font-specification:'Super Mario 286, '"
           id="path829" /></g><path
         id="path54120"
         style="vector-effect:none;fill:#ffffff;fill-opacity:1;stroke:none;stroke-width:0.24183px;stroke-linecap:butt;stroke-linejoin:miter;stroke-miterlimit:4;stroke-dasharray:none;stroke-dashoffset:0;stroke-opacity:1"
         d="m -201.81093,192.45244 -20.64387,3.7323 -16.8445,18.14481 -5.54791,14.59008 2.13773,11.2555 -3.69026,7.85427 5.69197,0.3788 2.14058,-2.82496 3.20046,3.86219 7.39896,0.30229 4.60233,-5.32594 5.14408,8.15279 24.71246,1.96157 -0.0713,-7.7003 -7.76785,-0.30796 -2.24164,-3.63548 16.33673,-6.73533 2.50521,3.0824 7.62001,2.19629 10.20409,0.28906 -2.1878,-4.53148 -6.10858,-0.95266 -2.89534,-5.16203 1.56245,-1.22193 2.85614,-13.16981 2.65399,-4.25185 -0.67306,-1.66304 -8.91889,4.90554 -9.68785,1.12318 -7.30874,4.62643 -16.17709,-0.23994 -5.59712,2.96931 0.64623,-4.40091 5.79163,-2.90386 14.48901,0.39958 6.77312,-3.7512 9.68265,-2.02815 9.76529,-4.23723 -2.78718,-9.83188 -7.09667,0.43972 z m 0.15161,15.27968 6.08576,1.67834 -0.0537,1.26997 -0.18967,0.46807 -5.2935,0.96594 -0.77745,-2.1758 z"
         sodipodi:nodetypes="cccccccccccccccccccccccccccccccccccccccccccccccc" /></g></g></svg>
